<svg xmlns="http://www.w3.org/2000/svg" viewBox="0 0 892.8 798.28"><defs><style>.cls-1{isolation:isolate;}.cls-2{fill:#fff;}.cls-3{fill:#e7e7e7;}.cls-4{fill:#cca500;}.cls-5{fill:#375a64;}.cls-6{fill:#2b454e;}.cls-7{fill:#e1e1e1;}.cls-8{opacity:0.5;mix-blend-mode:multiply;}.cls-9{fill:#f0f0f0;}.cls-10{fill:gold;}.cls-11{opacity:0.2;}</style></defs><title>Asset 3</title><g class="cls-1"><g id="Layer_2" data-name="Layer 2"><g id="Layer_1-2" data-name="Layer 1"><path class="cls-2" d="M130.75,730c174.33,91.07,457,91.07,631.3,0s174.33-238.72,0-329.8-457-91.07-631.3,0S-43.58,638.9,130.75,730Z"/><path class="cls-3" d="M567.77,781.2,70.39,494c-3.47-2-3.47-5.24,0-7.24L361.82,318.48a13.85,13.85,0,0,1,12.54,0L871.79,605.67c3.47,2,3.47,5.24,0,7.24L580.32,781.2A13.88,13.88,0,0,1,567.77,781.2Z"/><path class="cls-4" d="M464.34,367.21c6.14.13,16.28-7.82,17.81-17.67s4.48-17.62,18.52-23,21.9-7.7,26.4-19.92-2.54-26-4.38-36.4,7.68-22.52,21.8-34,22.17-23.5,9.59-30.76-28.1-4.18-41.74,4.57-24.33,20.27-41.1,18.73-26.14,5.63-29.42,18.79,1.48,29.84-11,34v55.91Z"/><path class="cls-2" d="M439,342l-.27,0a1.21,1.21,0,0,1-.91-1.45c12.77-55.27,70.43-116.47,101.58-129.18a1.2,1.2,0,1,1,.91,2.23c-30.7,12.53-87.53,72.92-100.13,127.5A1.21,1.21,0,0,1,439,342Z"/><path class="cls-2" d="M471.15,275.92a1.21,1.21,0,0,1-1.19-1,80.71,80.71,0,0,0-9.81-26.64,1.21,1.21,0,0,1,.38-1.66,1.19,1.19,0,0,1,1.66.37,81.59,81.59,0,0,1,10.15,27.54,1.2,1.2,0,0,1-1,1.39Z"/><path class="cls-2" d="M461.17,292.74a1.21,1.21,0,0,1-.31-2.38c19-5,42.95-.22,44,0a1.2,1.2,0,0,1-.48,2.36c-.24,0-24.44-4.89-42.86,0A1.65,1.65,0,0,1,461.17,292.74Z"/><polygon class="cls-5" points="436.93 56.51 525 5.66 544.62 16.99 525 50.96 436.93 101.81 436.93 56.51"/><polygon class="cls-6" points="525 5.66 515.2 0 426.93 50.96 436.93 56.51 525 5.66"/><path class="cls-2" d="M449.72,79.28a6,6,0,0,1-2.48.45c-.2,0-.29-.09-.29-.19a.68.68,0,0,1,.09-.33l.74-1.6a.92.92,0,0,1,.25-.35.54.54,0,0,1,.3-.05,6.91,6.91,0,0,0,1.94-.32,11.38,11.38,0,0,0,2.23-1,8.38,8.38,0,0,0,2.32-1.84A3.25,3.25,0,0,0,455.6,72a1.13,1.13,0,0,0-.3-.92,1.2,1.2,0,0,0-.85-.2,17.15,17.15,0,0,0-1.83.26l-.52.1a16.23,16.23,0,0,1-2.43.27,2.39,2.39,0,0,1-1.59-.5,2.19,2.19,0,0,1-.64-1.78A6.68,6.68,0,0,1,449,65.12a13.89,13.89,0,0,1,4.13-3.5,14.6,14.6,0,0,1,2.7-1.27,4.34,4.34,0,0,1,2-.23c.18,0,.28.1.28.22a.66.66,0,0,1-.1.3l-.72,1.6c-.09.18-.16.3-.23.33a.42.42,0,0,1-.29,0,6.73,6.73,0,0,0-3.59,1.15A7.33,7.33,0,0,0,451,65.51a3.32,3.32,0,0,0-.72,2.07,1.21,1.21,0,0,0,.3.94,1.29,1.29,0,0,0,.9.2c.39,0,1-.14,1.89-.31l.57-.1a14,14,0,0,1,2.58-.28,2,2,0,0,1,1.43.55,2.61,2.61,0,0,1,.51,1.82A6.51,6.51,0,0,1,457,74.3a13.45,13.45,0,0,1-4.14,3.52A19.54,19.54,0,0,1,449.72,79.28Z"/><path class="cls-2" d="M462.23,70.31q-2-.94-2-4.77a13.29,13.29,0,0,1,2-7.07A15.83,15.83,0,0,1,468,53.06q3.71-2.13,5.71-1.2t2,4.76a13.22,13.22,0,0,1-2,7.08A15.73,15.73,0,0,1,468,69.1Q464.23,71.26,462.23,70.31Zm9.34-6.92a10.26,10.26,0,0,0,1.24-5.11c0-1.93-.41-3.15-1.24-3.67s-2-.31-3.61.6a9.53,9.53,0,0,0-3.63,3.58,10.16,10.16,0,0,0-1.25,5.11c0,1.93.41,3.15,1.25,3.67s2.05.32,3.63-.59A9.43,9.43,0,0,0,471.57,63.39Z"/><path class="cls-2" d="M481.06,60.85a2.81,2.81,0,0,1-2.42-.6,3.45,3.45,0,0,1-.86-2.58V48.56a1.38,1.38,0,0,1,.19-.74,1.77,1.77,0,0,1,.65-.57l1.2-.69c.3-.18.51-.24.65-.18s.2.23.2.52v9.17c0,1.17.34,1.86,1,2.07s1.67-.06,2.95-.8a8.74,8.74,0,0,0,2.92-2.59,5.64,5.64,0,0,0,1-3.26V42.32a1.39,1.39,0,0,1,.19-.75,1.81,1.81,0,0,1,.66-.58l1.17-.68c.59-.34.88-.23.88.32v9.11a8.13,8.13,0,0,1-.86,3.56,12.85,12.85,0,0,1-2.43,3.4,16.21,16.21,0,0,1-3.57,2.76A10,10,0,0,1,481.06,60.85Z"/><path class="cls-2" d="M498.11,51.15c-.14-.06-.2-.22-.2-.49V38.32l-4,2.29c-.29.17-.5.23-.62.17s-.16-.22-.16-.51v-.61a1.47,1.47,0,0,1,.16-.72,1.9,1.9,0,0,1,.62-.55l10.81-6.23c.29-.18.5-.23.62-.18s.19.24.19.52v.61a1.25,1.25,0,0,1-.19.72,1.78,1.78,0,0,1-.62.54l-4,2.28V49a1.43,1.43,0,0,1-.19.72,1.89,1.89,0,0,1-.67.59l-1.17.67Q498.32,51.24,498.11,51.15Z"/><path class="cls-2" d="M507.52,45.72c-.13-.06-.19-.23-.19-.5V31.51a1.39,1.39,0,0,1,.19-.75,1.77,1.77,0,0,1,.65-.57l1.19-.69a.86.86,0,0,1,.66-.18c.13.06.2.23.2.52v5.69l7.41-4.28V25.56a1.4,1.4,0,0,1,.2-.75,1.91,1.91,0,0,1,.66-.58l1.17-.68a.9.9,0,0,1,.66-.18c.13.06.2.23.2.52V37.6a1.34,1.34,0,0,1-.19.72,1.8,1.8,0,0,1-.67.59l-1.17.68c-.3.17-.52.23-.66.17s-.2-.22-.2-.49V33.44l-7.41,4.28v5.83a1.43,1.43,0,0,1-.19.72,1.8,1.8,0,0,1-.67.59l-1.19.69C507.86,45.72,507.65,45.78,507.52,45.72Z"/><polygon class="cls-5" points="426.74 107.41 338.67 56.57 319.06 67.89 338.67 101.86 426.74 152.71 426.74 107.41"/><polygon class="cls-6" points="338.67 56.57 348.48 50.9 436.74 101.86 426.74 107.41 338.67 56.57"/><path class="cls-2" d="M347,92.73a1.45,1.45,0,0,1-.28-.6L342.6,75.5a.72.72,0,0,1,0-.22c0-.22.16-.24.49,0l2.11,1.22a1.77,1.77,0,0,1,.55.43,1,1,0,0,1,.21.48l2.61,11.45,3.13-7c.07-.14.15-.22.25-.23a1,1,0,0,1,.48.17l1.2.7a1.56,1.56,0,0,1,.48.38,1.51,1.51,0,0,1,.25.51L357.5,94l2.58-8.45a.25.25,0,0,1,.22-.23,1.1,1.1,0,0,1,.54.19L363,86.72c.33.19.5.4.5.62a.41.41,0,0,1,0,.19L359.3,99.39q-.1.26-.3.27a1.11,1.11,0,0,1-.56-.2L357,98.65a1.9,1.9,0,0,1-.56-.45,1.66,1.66,0,0,1-.3-.61L353,86.73,349.88,94c-.07.17-.17.26-.3.26A1.11,1.11,0,0,1,349,94l-1.43-.82A2.17,2.17,0,0,1,347,92.73Z"/><path class="cls-2" d="M366.27,103.78a1.26,1.26,0,0,1-.22-.74V89.33c0-.28.07-.45.22-.5a1.08,1.08,0,0,1,.75.22l10.85,6.27a2.29,2.29,0,0,1,.72.59,1.3,1.3,0,0,1,.19.73v.61c0,.28-.06.45-.19.5s-.37,0-.72-.22l-8.48-4.89V97l6.16,3.55a2.18,2.18,0,0,1,.72.61,1.24,1.24,0,0,1,.22.73v.56c0,.29-.08.45-.22.5s-.38,0-.72-.23l-6.16-3.55v4.4l8.45,4.88a2.13,2.13,0,0,1,.73.62,1.29,1.29,0,0,1,.21.74v.61c0,.27-.07.43-.21.47a1.27,1.27,0,0,1-.73-.25L367,104.41A2.22,2.22,0,0,1,366.27,103.78Z"/><path class="cls-2" d="M383.77,114.08a19.25,19.25,0,0,1-2.85-2.63c-.23-.27-.34-.45-.34-.56a.22.22,0,0,1,.1-.21l.87-.68a.25.25,0,0,1,.28,0,1.71,1.71,0,0,1,.34.31,21.88,21.88,0,0,0,2.24,2.1,21.62,21.62,0,0,0,2.59,1.8,6.37,6.37,0,0,0,2.67,1c.6,0,.9-.36.9-1.12a2.53,2.53,0,0,0-.34-1.28,6.39,6.39,0,0,0-1-1.27c-.44-.45-1.14-1.12-2.11-2l-.6-.55c-1.13-1-2.07-2-2.81-2.75a13.15,13.15,0,0,1-1.84-2.48,5.32,5.32,0,0,1-.73-2.57c0-1.37.61-2.08,1.82-2.13a9.61,9.61,0,0,1,4.76,1.63,23.3,23.3,0,0,1,3.11,2.1,15.62,15.62,0,0,1,2.29,2.22,1.08,1.08,0,0,1,.31.56.21.21,0,0,1-.1.19l-.84.69a.23.23,0,0,1-.26,0,1.86,1.86,0,0,1-.34-.33,16.38,16.38,0,0,0-4.15-3.32,5.3,5.3,0,0,0-2.48-.91c-.55,0-.83.42-.83,1.17a2.66,2.66,0,0,0,.35,1.32,6.88,6.88,0,0,0,1,1.31c.45.45,1.18,1.14,2.19,2l.65.6c1.28,1.17,2.27,2.15,3,2.93a10.88,10.88,0,0,1,1.66,2.34,5.34,5.34,0,0,1,.58,2.44c0,1.3-.56,2-1.68,2.09s-2.72-.45-4.78-1.64A32.79,32.79,0,0,1,383.77,114.08Z"/><path class="cls-2" d="M400.46,123.52a1.29,1.29,0,0,1-.24-.75V110.44l-4.56-2.64a2.17,2.17,0,0,1-.72-.59,1.29,1.29,0,0,1-.19-.72v-.61c0-.29.06-.46.19-.51s.37,0,.72.22l12.47,7.2a2.22,2.22,0,0,1,.73.61,1.3,1.3,0,0,1,.2.74v.61c0,.29-.06.45-.2.49a1.14,1.14,0,0,1-.73-.24l-4.57-2.63V124.7c0,.27-.07.43-.22.48s-.41,0-.77-.24l-1.36-.78A2.24,2.24,0,0,1,400.46,123.52Z"/><path class="cls-5" d="M436.91,9.52c0-1.44-1-2.87-2.91-4a15.65,15.65,0,0,0-14.14,0c-1.9,1.1-2.86,2.53-2.91,4h0V541.07h20V9.52Z"/><path class="cls-5" d="M613.29,411.12l-117.7-34-122-102.91a11.05,11.05,0,0,0-11.81-1.05L70.32,441.47c-3.46,2-3.79,5.71-.74,8.29l122,102.91,117.7,34L436.73,694.22l130.42,43a18.44,18.44,0,0,0,13.15-1.35l13.36-7.71L871.8,567.61c3.47-2,3.19-4.63-.61-5.89l-130.42-43Z"/><polygon class="cls-5" points="495.6 377.15 191.55 552.67 309.25 586.64 613.29 411.12 495.6 377.15"/><path class="cls-5" d="M436.73,694.22l130.42,43a18.44,18.44,0,0,0,13.15-1.35L871.8,567.61c3.47-2,3.19-4.63-.61-5.89l-130.42-43Z"/><polygon class="cls-7" points="475.96 388.47 364.4 294.34 99.61 447.21 211.18 541.35 475.96 388.47"/><polygon class="cls-7" points="593.66 422.44 328.88 575.32 211.18 541.35 475.96 388.47 593.66 422.44"/><g class="cls-8"><polygon class="cls-7" points="593.66 422.44 328.88 575.32 211.18 541.35 475.96 388.47 593.66 422.44"/></g><polygon class="cls-7" points="721.14 530.02 456.35 682.9 328.88 575.32 593.66 422.44 721.14 530.02"/><polygon class="cls-7" points="833.49 567.08 568.69 719.96 456.35 682.9 721.14 530.02 833.49 567.08"/><g class="cls-8"><polygon class="cls-7" points="833.49 567.08 568.69 719.96 456.35 682.9 721.14 530.02 833.49 567.08"/></g><polygon class="cls-9" points="164.2 501.71 201.37 479.06 142.53 422.44 99.61 447.21 164.2 501.71"/><polygon class="cls-9" points="211.18 473.4 152.33 416.78 240.6 365.63 299.44 422.44 211.18 473.4"/><polygon class="cls-9" points="250.41 360.15 309.25 416.78 338.67 399.79 328.86 314.86 250.41 360.15"/><polygon class="cls-9" points="348.48 394.13 338.67 309.2 364.4 294.34 460.03 375.02 348.48 394.13"/><polygon class="cls-9" points="245.51 521.53 216.08 493.22 179.3 514.45 211.18 541.35 245.51 521.53"/><polygon class="cls-9" points="225.89 487.55 255.31 515.86 343.48 464.96 314.12 436.61 225.89 487.55"/><polygon class="cls-9" points="353.38 459.25 323.96 430.93 350.9 415.38 407.32 405.45 407.32 428.1 353.38 459.25"/><polygon class="cls-9" points="417.13 422.44 417.13 403.73 463.74 395.53 417.13 422.44"/><path class="cls-3" d="M466.17,439.42c-10.84-3.12-26.21-1.86-34.33,2.83s-5.93,11,4.9,14.16,26.21,1.86,34.33-2.83S477,442.55,466.17,439.42Z"/><path class="cls-3" d="M434.31,433.3a32.79,32.79,0,0,0-6.09,2.68c-8.54,4.92-8.76,11.35-8.45,13.88a11.9,11.9,0,0,0,1.38,4.25l-23.64,13.62-44.13-8.48,53.93-31.14Z"/><polygon class="cls-3" points="417.13 422.44 447.37 427.67 462.88 429.81 515.19 399.79 475.96 388.47 417.13 422.44"/><path class="cls-3" d="M593.65,422.43,520,465l-43.87-6c7.12-4.78,7.26-10.58,7-13a12.47,12.47,0,0,0-1.35-4.22l59.56-34.41Z"/><path class="cls-3" d="M511.15,470.07,476,490.37l-59-11.32L441.55,465l.19-.12h0a62,62,0,0,0,8.3.56,58.83,58.83,0,0,0,16.78-2.3h0Z"/><polygon class="cls-3" points="343.48 464.96 255.31 515.86 299.44 524.36 387.64 473.43 343.48 464.96"/><polygon class="cls-3" points="475.98 490.38 417.02 479.07 328.83 530.01 387.7 541.34 475.98 490.38"/><polygon class="cls-3" points="245.51 521.53 211.18 541.35 250.4 552.67 289.63 530.02 245.51 521.53"/><polygon class="cls-3" points="377.9 547.02 319.02 535.68 276.55 560.22 328.88 575.32 377.9 547.02"/><polygon class="cls-9" points="534.81 490.39 567.59 550.74 652.5 501.71 574.04 467.74 534.81 490.39"/><polygon class="cls-9" points="377.9 547.02 387.71 563.99 384.64 622.38 328.88 575.32 377.9 547.02"/><polygon class="cls-9" points="387.7 541.34 397.51 558.33 520.5 487.32 511.16 470.07 387.7 541.34"/><polygon class="cls-9" points="520.01 464.96 529.91 481.89 609.6 435.89 593.66 422.44 520.01 464.96"/><polygon class="cls-9" points="525.01 496.05 402.41 566.83 399.26 634.72 408.55 642.56 557.86 556.35 525.01 496.05"/><polygon class="cls-9" points="583.85 462.07 617.56 442.61 673.34 489.68 662.31 496.05 583.85 462.07"/><polygon class="cls-9" points="424.48 656 466.16 631.94 485.78 665.91 456.35 682.9 424.48 656"/><rect class="cls-9" x="482.74" y="612.33" width="45.3" height="39.23" transform="translate(-248.26 337.36) rotate(-30)"/><polygon class="cls-9" points="525.01 597.97 567.25 573.58 586.02 608.03 544.62 631.94 525.01 597.97"/><polygon class="cls-9" points="595.67 602.46 576.95 567.98 662.31 518.7 705.21 516.58 721.14 530.02 595.67 602.46"/><polygon class="cls-9" points="681.3 496.4 662.31 507.37 692.9 506.19 681.3 496.4"/><path class="cls-3" d="M643.3,621c-10.83-3.13-26.2-1.86-34.33,2.83s-5.92,11,4.91,14.16,26.2,1.86,34.33-2.83S654.14,624.1,643.3,621Z"/><polygon class="cls-3" points="485.78 665.91 525.01 677.24 493.8 695.25 456.35 682.9 485.78 665.91"/><polygon class="cls-3" points="495.58 660.25 534.81 671.58 574.04 648.93 534.81 637.6 495.58 660.25"/><path class="cls-3" d="M544.62,631.94l39.23,11.32,13.06-7.54s-6.2-13.86,12.17-19.65L586,608Z"/><path class="cls-3" d="M595.67,602.46l24.16,8.71a81.3,81.3,0,0,1,19.61,0l71.9-41.51-39.23-11.33Z"/><polygon class="cls-3" points="681.91 552.67 721.15 563.99 758.59 542.38 721.14 530.02 681.91 552.67"/><polygon class="cls-3" points="783.56 550.61 721.15 586.64 770.19 603.63 833.49 567.08 783.56 550.61"/><path class="cls-3" d="M711.34,592.31l-51.56,29.76s6.33,9.84-1.76,17.6l33.71,9.26,68.65-39.64L712.53,593"/><path class="cls-3" d="M681.92,654.59l-34.83-8.79s-16.79,6.57-30.92,1.45l-51.93,30-9.81,38L568.69,720Z"/><polygon class="cls-3" points="554.43 682.9 546.21 712.54 518.76 703.49 554.43 682.9"/><path class="cls-10" d="M511.16,592.38a2.41,2.41,0,0,1-1.23-4.49l51.63-30.45-47.92-87.51-45.1-7.11a2.41,2.41,0,0,1-.88-4.44c6.67-4.07,10-7.94,9.75-11.19s-4.16-6.4-10.38-8.79c-9.29-3.58-28.46-2.4-36.73,4-7.23,5.61-2.88,12.38-2.69,12.66a2.43,2.43,0,0,1-.76,3.4l-24.87,15a2.34,2.34,0,0,1-1.67.31l-52.25-9.37a2.37,2.37,0,0,1-1.29-.67L294,410.68a2.41,2.41,0,0,1,3.43-3.4l52.2,52.55,50.6,9.08,22.16-13.4c-1.78-4.32-2.24-11.35,4.92-16.9,9.58-7.44,30.79-8.81,41.43-4.71,4.75,1.82,12.83,5.93,13.45,12.86.37,4.09-2,8.19-7,12.23l40.33,6.35a2.4,2.4,0,0,1,1.74,1.23l49.62,90.6a2.41,2.41,0,0,1-.89,3.24l-53.65,31.64A2.36,2.36,0,0,1,511.16,592.38Z"/><path class="cls-4" d="M311.62,335.36l-8.27-4.75h0c-3.94-2.64-9.42-2.52-15.48,1-12,6.94-21.75,24.55-21.75,39.34v3.37c0,14.79,19.88,30.86,19.88,30.86l8.13,4.59s-4.88-5.56-4.33-6.71c5.33-10.93,19.83-41.79,19.83-53.86V345.8a26.4,26.4,0,0,0-.93-7.22l.93.54Zm-23.75,33.9c-6,3.47-10.87.66-10.87-6.28,3.23-.51,11.36-14.39,10.87-18.84,6-3.47,10.88-.65,10.88,6.28S293.88,365.79,287.87,369.26Z"/><path class="cls-4" d="M311.62,335.36l-8.27-4.75h0c-3.94-2.64-9.42-2.52-15.48,1-12,6.94-21.75,24.55-21.75,39.34v3.37c0,14.79,19.88,30.86,19.88,30.86l8.13,4.59s-4.88-5.56-4.33-6.71c5.33-10.93,19.83-41.79,19.83-53.86V345.8a26.4,26.4,0,0,0-.93-7.22l.93.54Zm-23.75,33.9c-6,3.47-10.87.66-10.87-6.28,3.23-.51,11.36-14.39,10.87-18.84,6-3.47,10.88-.65,10.88,6.28S293.88,365.79,287.87,369.26Z"/><g class="cls-11"><path class="cls-4" d="M311.62,335.36l-8.27-4.75h0c-3.94-2.64-9.42-2.52-15.48,1-12,6.94-21.75,24.55-21.75,39.34v3.37c0,14.79,19.88,30.86,19.88,30.86l8.13,4.59s-4.88-5.56-4.33-6.71c5.33-10.93,19.83-41.79,19.83-53.86V345.8a26.4,26.4,0,0,0-.93-7.22l.93.54Zm-23.75,33.9c-6,3.47-10.87.66-10.87-6.28,3.23-.51,11.36-14.39,10.87-18.84,6-3.47,10.88-.65,10.88,6.28S293.88,365.79,287.87,369.26Z"/></g><path class="cls-10" d="M318.33,350.82c0-14.78-9.74-21.15-21.76-14.21s-21.75,24.55-21.75,39.33v3.37c0,11.39,12.9,24.6,18.83,30.08a2.94,2.94,0,0,0,4.63-.86c5.12-10.49,20.05-42.09,20.05-54.34Zm-21.76,23.47c-6,3.46-10.87.65-10.87-6.28s4.87-15.38,10.87-18.84,10.88-.66,10.88,6.28S302.58,370.82,296.57,374.29Z"/><path class="cls-4" d="M526.49,518.85l-8.26-4.75h0c-4-2.64-9.42-2.52-15.48,1C490.73,522,481,539.62,481,554.41v3.37c0,14.78,19.89,30.86,19.89,30.86l8.13,4.59s-4.89-5.56-4.33-6.71c5.33-10.93,19.82-41.79,19.82-53.86v-3.37a26.4,26.4,0,0,0-.93-7.22l.93.54Zm-23.74,33.9c-6,3.47-10.88.66-10.88-6.28,3.23-.51,11.37-14.39,10.88-18.84,6-3.47,10.88-.65,10.88,6.28S508.76,549.28,502.75,552.75Z"/><path class="cls-4" d="M526.49,518.85l-8.26-4.75h0c-4-2.64-9.42-2.52-15.48,1C490.73,522,481,539.62,481,554.41v3.37c0,14.78,19.89,30.86,19.89,30.86l8.13,4.59s-4.89-5.56-4.33-6.71c5.33-10.93,19.82-41.79,19.82-53.86v-3.37a26.4,26.4,0,0,0-.93-7.22l.93.54Zm-23.74,33.9c-6,3.47-10.88.66-10.88-6.28,3.23-.51,11.37-14.39,10.88-18.84,6-3.47,10.88-.65,10.88,6.28S508.76,549.28,502.75,552.75Z"/><g class="cls-11"><path class="cls-4" d="M526.49,518.85l-8.26-4.75h0c-4-2.64-9.42-2.52-15.48,1C490.73,522,481,539.62,481,554.41v3.37c0,14.78,19.89,30.86,19.89,30.86l8.13,4.59s-4.89-5.56-4.33-6.71c5.33-10.93,19.82-41.79,19.82-53.86v-3.37a26.4,26.4,0,0,0-.93-7.22l.93.54Zm-23.74,33.9c-6,3.47-10.88.66-10.88-6.28,3.23-.51,11.37-14.39,10.88-18.84,6-3.47,10.88-.65,10.88,6.28S508.76,549.28,502.75,552.75Z"/></g><path class="cls-10" d="M533.2,534.31c0-14.78-9.74-21.15-21.75-14.21s-21.76,24.54-21.76,39.33v3.37c0,11.39,12.91,24.6,18.84,30.08a2.93,2.93,0,0,0,4.62-.87c5.13-10.48,20.05-42.08,20.05-54.33Zm-21.75,23.47c-6,3.46-10.88.65-10.88-6.28s4.87-15.38,10.88-18.84,10.88-.66,10.88,6.28S517.46,554.31,511.45,557.78Z"/></g></g></g></svg>