<svg xmlns="http://www.w3.org/2000/svg" viewBox="0 0 719.15 394.5"><defs><style>.cls-1,.cls-6{fill:gold;}.cls-1{stroke:#f7941e;}.cls-1,.cls-2,.cls-4{stroke-linecap:round;stroke-linejoin:round;}.cls-1,.cls-2{stroke-width:3.01px;}.cls-2{fill:#fff;stroke:#3d114f;}.cls-3{fill:#9e1f63;}.cls-4{fill:none;stroke:#262262;stroke-width:3.22px;}.cls-5{font-size:158.95px;font-family:BubbleBoy2;}</style></defs><title>Asset 3</title><g id="Layer_2" data-name="Layer 2"><g id="Layer_1-2" data-name="Layer 1"><polygon class="cls-1" points="349.73 95.33 360.49 117.12 384.55 120.61 367.14 137.59 371.25 161.54 349.73 150.23 328.21 161.54 332.32 137.59 314.92 120.61 338.97 117.12 349.73 95.33"/><line class="cls-2" x1="349.73" y1="72.66" x2="349.73" y2="1.5"/><line class="cls-2" x1="308.09" y1="18.11" x2="305" y2="9.7"/><line class="cls-2" x1="329.58" y1="76.47" x2="316.87" y2="41.97"/><line class="cls-2" x1="292.63" y1="63.84" x2="282.4" y2="52.02"/><line class="cls-2" x1="325" y1="101.3" x2="304.08" y2="77.1"/><line class="cls-2" x1="299.14" y1="103" x2="237.11" y2="68.11"/><line class="cls-2" x1="233.53" y1="112.93" x2="222.33" y2="111.13"/><line class="cls-2" x1="292.59" y1="122.43" x2="248.2" y2="115.29"/><line class="cls-2" x1="305" y1="139.59" x2="239.96" y2="153.13"/><line class="cls-2" x1="250.14" y1="192.81" x2="239.96" y2="198.93"/><line class="cls-2" x1="310.32" y1="156.6" x2="268.44" y2="181.81"/><line class="cls-2" x1="435.63" y1="173.83" x2="465.69" y2="190.2"/><line class="cls-2" x1="388.37" y1="148.09" x2="423.18" y2="167.05"/><line class="cls-2" x1="400.66" y1="135.62" x2="479.01" y2="146.72"/><line class="cls-2" x1="463.3" y1="104.35" x2="476.49" y2="101.3"/><line class="cls-2" x1="407.15" y1="117.32" x2="442.28" y2="109.21"/><line class="cls-2" x1="398.9" y1="98.55" x2="458.43" y2="59.56"/><line class="cls-2" x1="404.08" y1="57.93" x2="414.38" y2="43.9"/><line class="cls-2" x1="374.25" y1="98.55" x2="395.24" y2="69.96"/><line class="cls-2" x1="383.2" y1="16.95" x2="386.24" y2="6.56"/><line class="cls-2" x1="365.06" y1="79.05" x2="376.53" y2="39.76"/><path class="cls-3" d="M661.43,188l.38-.17a6.55,6.55,0,0,0-1.47-12.46l-.31-.08a8.9,8.9,0,0,1-7.42-7.67c0-.05,0-.1-.05-.15,0-.25-.13-.48-.2-.72s-.11-.36-.18-.53-.2-.4-.3-.6-.2-.36-.31-.54a6.12,6.12,0,0,0-.4-.49,6,6,0,0,0-.4-.48c-.16-.15-.34-.29-.51-.43s-.3-.25-.46-.36-.38-.22-.57-.33l-.56-.29-.56-.19c-.24-.07-.46-.14-.7-.19l-.16,0c-.14,0-.29,0-.44,0s-.45-.05-.7-.05-.45,0-.69.05-.3,0-.45,0l-.15,0c-.23.05-.44.12-.66.19a4.82,4.82,0,0,0-.61.2c-.17.07-.34.17-.5.25s-.43.23-.63.36-.26.21-.4.32a6.68,6.68,0,0,0-.57.49c-.13.13-.24.28-.36.42a5.79,5.79,0,0,0-.43.55,4.21,4.21,0,0,0-.29.51,5.07,5.07,0,0,0-.32.61c-.07.17-.12.36-.18.53s-.15.47-.2.72c0,.05,0,.1,0,.15a8.92,8.92,0,0,1-7.42,7.67c-.14,0-.26.07-.39.09s-.51.1-.75.17-.4.16-.59.24L630,176a5.11,5.11,0,0,0-.73.48l-.25.17a6.56,6.56,0,0,0,3.08,11.64l.15,0a8.92,8.92,0,0,1,7.43,7.67c0,.05,0,.1,0,.16a5.44,5.44,0,0,0,.15.54c.06.22.13.44.21.65s.15.31.22.46.23.43.35.63l.29.4a6.06,6.06,0,0,0,.47.54,4,4,0,0,0,.36.35,5.89,5.89,0,0,0,.55.44l.41.29a7.92,7.92,0,0,0,.71.37l.37.17a6.63,6.63,0,0,0,2.35.44h0a6.63,6.63,0,0,0,2.35-.44c.13-.05.25-.12.38-.18a7.75,7.75,0,0,0,.7-.36l.42-.29.55-.43.36-.37a6,6,0,0,0,.46-.53l.29-.41c.12-.19.24-.4.35-.61s.15-.31.21-.47a5.39,5.39,0,0,0,.22-.64c.05-.19.11-.37.15-.55s0-.11.05-.16a8.9,8.9,0,0,1,7.41-7.67l.16,0c.24,0,.47-.1.7-.16A5,5,0,0,0,661.43,188Z"/><path class="cls-3" d="M718.22,347.56c.12-.23.25-.45.36-.69a5.5,5.5,0,0,0,.23-.76,6.6,6.6,0,0,0,.2-.63,8,8,0,0,0,.14-1.4V344h0a6.68,6.68,0,0,0-.07-.77c0-.25,0-.51-.08-.75h0a.32.32,0,0,1,0-.09,7.25,7.25,0,0,0-.42-1.32c-.1-.24-.23-.43-.34-.65s-.21-.43-.35-.62a8.06,8.06,0,0,0-.59-.72c-.12-.12-.21-.26-.34-.39a7.83,7.83,0,0,0-.69-.58c-.15-.1-.27-.23-.42-.33a8.14,8.14,0,0,0-.77-.41,3.56,3.56,0,0,0-.51-.27,7.5,7.5,0,0,0-.95-.3c-.14,0-.29-.1-.44-.13a7,7,0,0,0-1.46-.15h-.05C701.1,336.49,700.08,323,700,320c0-.2,0-.4,0-.6a7.38,7.38,0,0,0-3.12-5.92h0a7.24,7.24,0,0,0-2.15-1.08h0a7.51,7.51,0,0,0-2.25-.31,7.43,7.43,0,0,0-3.85,1.11h-.11a7.07,7.07,0,0,0-1,.75h0a0,0,0,0,1,0,0h0l0,0h0a7.49,7.49,0,0,0-2.38,5.44h0v0h0v1.59c-.39,12.88-11.15,15.08-13.48,15.4a6.84,6.84,0,0,0-1.85.44,7.32,7.32,0,0,0-2.55,1.59,7.44,7.44,0,0,0-1.9,2.93,7.59,7.59,0,0,0-.42,2.19,7.17,7.17,0,0,0,.42,2.81,7.8,7.8,0,0,0,1.49,2.5,7.61,7.61,0,0,0,4.66,2.44c1,.15,12.84,2.2,13.64,17.39,0,.14,0,.27.06.41s.06.48.11.72.12.49.19.73a5.41,5.41,0,0,0,.24.63,4.63,4.63,0,0,0,.34.71c.1.18.2.34.29.51s.36.48.55.71l.32.36a8,8,0,0,0,.75.67c.1.08.18.16.28.23a7,7,0,0,0,1,.59l.21.11a8.42,8.42,0,0,0,1.25.45l.08,0a7.33,7.33,0,0,0,1.82.25h.2a7.5,7.5,0,0,0,6.53-4.24c0-.05,0-.09.07-.15a5.9,5.9,0,0,0,.37-1c0-.13.09-.25.12-.38a6.5,6.5,0,0,0,.12-.87,2.64,2.64,0,0,0,.08-.49c0-.6.94-14.86,13.2-17.44h0l.09,0a6.85,6.85,0,0,0,1.33-.42c.2-.08.36-.19.54-.28s.51-.26.73-.42a6.28,6.28,0,0,0,.58-.47c.17-.15.36-.29.53-.45s.31-.36.45-.54.32-.38.46-.58S718.11,347.75,718.22,347.56Z"/><line class="cls-4" x1="655.5" y1="245.92" x2="682.61" y2="273.03"/><line class="cls-4" x1="655.5" y1="273.03" x2="682.61" y2="245.92"/><line class="cls-4" x1="529.46" y1="90.79" x2="556.57" y2="117.9"/><line class="cls-4" x1="529.46" y1="117.9" x2="556.57" y2="90.79"/><path class="cls-3" d="M590.44,164.87a12.34,12.34,0,1,1-12.33-12.34A12.34,12.34,0,0,1,590.44,164.87Z"/><path class="cls-3" d="M47.76,352.42c.18-.06.34-.15.52-.23a8.95,8.95,0,0,0-2-17c-.14,0-.28-.08-.41-.1-1.43-.21-8.61-1.71-10.15-10.48a1.52,1.52,0,0,0-.06-.2,7.89,7.89,0,0,0-.28-1c-.08-.25-.14-.5-.24-.74a7.6,7.6,0,0,0-.42-.8c-.13-.25-.26-.51-.41-.74s-.36-.45-.55-.68-.35-.45-.55-.65-.45-.39-.69-.59a7.68,7.68,0,0,0-.63-.5,7.44,7.44,0,0,0-.78-.44,6.94,6.94,0,0,0-.77-.39,6.33,6.33,0,0,0-.77-.26,9.29,9.29,0,0,0-.94-.27l-.21-.06c-.2,0-.4,0-.61,0a6.48,6.48,0,0,0-1.9,0c-.2,0-.4,0-.61,0l-.22.06a8.34,8.34,0,0,0-.89.26c-.29.09-.57.16-.84.27s-.45.23-.68.35-.59.31-.86.49-.37.29-.55.44a9.58,9.58,0,0,0-.77.66c-.18.18-.33.39-.5.58s-.41.48-.59.74a6,6,0,0,0-.39.7,6.08,6.08,0,0,0-.44.84c-.1.23-.16.48-.24.73a7.89,7.89,0,0,0-.28,1,1.52,1.52,0,0,1-.06.2c-1.53,8.72-8.65,10.25-10.12,10.48-.19,0-.36.09-.54.12a8.42,8.42,0,0,0-1,.24c-.28.09-.55.21-.81.32s-.49.2-.72.33a9.65,9.65,0,0,0-1,.65c-.11.08-.22.15-.33.24a9,9,0,0,0,4.21,15.89l.2.05c1.43.21,8.6,1.72,10.14,10.48a1.41,1.41,0,0,1,.06.22c.06.25.14.5.21.75a7,7,0,0,0,.29.88c.09.21.2.42.3.63s.31.57.48.85.26.36.39.54a9.25,9.25,0,0,0,.63.75c.16.16.32.33.5.48a7.3,7.3,0,0,0,.75.6c.19.14.37.28.57.4s.63.35,1,.5.33.17.51.23a8.89,8.89,0,0,0,3.21.61h0a8.84,8.84,0,0,0,3.2-.61c.18-.06.34-.16.52-.24a9.43,9.43,0,0,0,.95-.49c.2-.13.39-.26.58-.41a8.2,8.2,0,0,0,.74-.58c.18-.16.34-.33.5-.5a6.14,6.14,0,0,0,.62-.73l.41-.55c.16-.28.32-.55.47-.85s.21-.42.3-.63a18.81,18.81,0,0,0,.5-1.63c0-.08,0-.15.06-.22,1.54-8.73,8.65-10.25,10.13-10.48a1,1,0,0,0,.22-.05c.33-.05.64-.14,1-.22S47.52,352.51,47.76,352.42Z"/><line class="cls-4" x1="111.2" y1="154.79" x2="111.19" y2="116.44"/><line class="cls-4" x1="130.37" y1="135.61" x2="92.02" y2="135.61"/><path class="cls-3" d="M57.62,177.21a12.34,12.34,0,1,1-12.34-12.34A12.35,12.35,0,0,1,57.62,177.21Z"/><path class="cls-3" d="M192.52,154.79a12.34,12.34,0,1,1-12.33-12.34A12.34,12.34,0,0,1,192.52,154.79Z"/><path class="cls-3" d="M176.44,87.43A10.47,10.47,0,1,1,166,77,10.46,10.46,0,0,1,176.44,87.43Z"/><path class="cls-4" d="M77.66,259.48a16.19,16.19,0,1,1-16.19-16.2A16.19,16.19,0,0,1,77.66,259.48Z"/><text class="cls-5" transform="translate(78.29 356.52)">Bas<tspan class="cls-6" x="283.71" y="0">k</tspan><tspan x="378.28" y="0">et </tspan></text><circle class="cls-6" cx="438.78" cy="372.29" r="9.46"/><circle class="cls-6" cx="382.01" cy="372.29" r="9.46"/><rect class="cls-6" x="400.22" y="181.17" width="30.28" height="11.35" rx="1.5" transform="translate(44.87 -78.06) rotate(11.35)"/><rect class="cls-6" x="462.58" y="363.95" width="148.56" height="15.64" rx="2.85"/><rect class="cls-6" x="89.89" y="363.95" width="265.84" height="15.64" rx="2.85"/></g></g></svg>