<?xml version="1.0" encoding="utf-8"?>
<!-- Generator: Adobe Illustrator 22.0.1, SVG Export Plug-In . SVG Version: 6.00 Build 0)  -->
<svg version="1.1" id="Layer_1" xmlns="http://www.w3.org/2000/svg" xmlns:xlink="http://www.w3.org/1999/xlink" x="0px" y="0px"
	 viewBox="0 0 719.1 394.6" style="enable-background:new 0 0 719.1 394.6;" xml:space="preserve">
<style type="text/css">
	.st0{fill:#FFD700;stroke:#F7941E;stroke-width:3.0056;stroke-linecap:round;stroke-linejoin:round;stroke-miterlimit:10;}
	.st1{fill:#FFFFFF;stroke:#3D114F;stroke-width:3.0056;stroke-linecap:round;stroke-linejoin:round;stroke-miterlimit:10;}
	.st2{fill:#9E1F63;}
	.st3{fill:none;stroke:#262262;stroke-width:3.2203;stroke-linecap:round;stroke-linejoin:round;stroke-miterlimit:10;}
	.st4{fill:#FFD700;}
</style>
<g>
	<g>
		<polygon class="st0" points="350.7,97.2 361.3,118.7 385,122.2 367.9,138.9 371.9,162.5 350.7,151.4 329.5,162.5 333.6,138.9 
			316.4,122.2 340.1,118.7 		"/>
		<g>
			<line class="st1" x1="350.7" y1="74.9" x2="350.7" y2="4.7"/>
			<line class="st1" x1="309.7" y1="21.1" x2="306.6" y2="12.8"/>
			<line class="st1" x1="330.8" y1="78.7" x2="318.3" y2="44.6"/>
			<line class="st1" x1="294.4" y1="66.2" x2="284.3" y2="54.5"/>
			<line class="st1" x1="326.3" y1="103.1" x2="305.7" y2="79.3"/>
			<line class="st1" x1="300.8" y1="104.8" x2="239.7" y2="70.4"/>
			<line class="st1" x1="236.1" y1="114.6" x2="225.1" y2="112.8"/>
			<line class="st1" x1="294.4" y1="124" x2="250.6" y2="116.9"/>
			<line class="st1" x1="306.6" y1="140.9" x2="242.5" y2="154.2"/>
			<line class="st1" x1="252.5" y1="193.4" x2="242.5" y2="199.4"/>
			<line class="st1" x1="311.9" y1="157.7" x2="270.6" y2="182.5"/>
			<line class="st1" x1="435.4" y1="174.7" x2="465.1" y2="190.8"/>
			<line class="st1" x1="388.8" y1="149.3" x2="423.1" y2="168"/>
			<line class="st1" x1="400.9" y1="137" x2="478.2" y2="147.9"/>
			<line class="st1" x1="462.7" y1="106.1" x2="475.7" y2="103.1"/>
			<line class="st1" x1="407.3" y1="118.9" x2="442" y2="110.9"/>
			<line class="st1" x1="399.2" y1="100.4" x2="457.9" y2="62"/>
			<line class="st1" x1="404.3" y1="60.4" x2="414.5" y2="46.5"/>
			<line class="st1" x1="374.9" y1="100.4" x2="395.6" y2="72.2"/>
			<line class="st1" x1="383.7" y1="20" x2="386.7" y2="9.7"/>
			<line class="st1" x1="365.8" y1="81.2" x2="377.1" y2="42.5"/>
		</g>
	</g>
	<g>
		<path class="st2" d="M658.1,188.6c0.1,0,0.2-0.1,0.4-0.2c2.5-1.1,4.2-3.8,3.9-6.7c-0.3-2.9-2.6-5.1-5.3-5.6
			c-0.1,0-0.2-0.1-0.3-0.1c-1-0.2-6.2-1.2-7.3-7.6c0-0.1,0-0.1,0-0.1c-0.1-0.2-0.1-0.5-0.2-0.7c-0.1-0.2-0.1-0.4-0.2-0.5
			c-0.1-0.2-0.2-0.4-0.3-0.6c-0.1-0.2-0.2-0.4-0.3-0.5c-0.1-0.2-0.3-0.3-0.4-0.5c-0.1-0.2-0.3-0.3-0.4-0.5c-0.2-0.2-0.3-0.3-0.5-0.4
			c-0.1-0.1-0.3-0.3-0.5-0.4c-0.2-0.1-0.4-0.2-0.6-0.3c-0.2-0.1-0.4-0.2-0.5-0.3c-0.2-0.1-0.4-0.1-0.6-0.2c-0.2-0.1-0.5-0.1-0.7-0.2
			c-0.1,0-0.1,0-0.2,0c-0.1,0-0.3,0-0.4,0c-0.2,0-0.5,0-0.7,0c-0.2,0-0.5,0-0.7,0c-0.1,0-0.3,0-0.4,0c-0.1,0-0.1,0-0.2,0
			c-0.2,0-0.4,0.1-0.6,0.2c-0.2,0.1-0.4,0.1-0.6,0.2c-0.2,0.1-0.3,0.2-0.5,0.3c-0.2,0.1-0.4,0.2-0.6,0.4c-0.1,0.1-0.3,0.2-0.4,0.3
			c-0.2,0.2-0.4,0.3-0.6,0.5c-0.1,0.1-0.2,0.3-0.4,0.4c-0.1,0.2-0.3,0.3-0.4,0.5c-0.1,0.2-0.2,0.3-0.3,0.5c-0.1,0.2-0.2,0.4-0.3,0.6
			c-0.1,0.2-0.1,0.4-0.2,0.5c-0.1,0.2-0.1,0.5-0.2,0.7c0,0,0,0.1,0,0.1c-1.1,6.3-6.3,7.4-7.3,7.6c-0.1,0-0.3,0.1-0.4,0.1
			c-0.3,0-0.5,0.1-0.7,0.2c-0.2,0.1-0.4,0.2-0.6,0.2c-0.2,0.1-0.3,0.1-0.5,0.2c-0.3,0.1-0.5,0.3-0.7,0.5c-0.1,0.1-0.2,0.1-0.2,0.2
			c-1.7,1.4-2.7,3.5-2.4,5.8c0.3,3,2.6,5.2,5.5,5.7c0.1,0,0.1,0,0.1,0c1,0.2,6.2,1.2,7.3,7.6c0,0.1,0,0.1,0,0.2
			c0,0.2,0.1,0.4,0.1,0.5c0.1,0.2,0.1,0.4,0.2,0.6c0.1,0.2,0.1,0.3,0.2,0.5c0.1,0.2,0.2,0.4,0.3,0.6c0.1,0.1,0.2,0.3,0.3,0.4
			c0.1,0.2,0.3,0.4,0.5,0.5c0.1,0.1,0.2,0.2,0.4,0.3c0.2,0.2,0.4,0.3,0.5,0.4c0.1,0.1,0.3,0.2,0.4,0.3c0.2,0.1,0.5,0.2,0.7,0.4
			c0.1,0.1,0.2,0.1,0.4,0.2c0.7,0.3,1.5,0.4,2.3,0.4h0c0,0,0,0,0,0c0.8,0,1.6-0.2,2.3-0.4c0.1,0,0.3-0.1,0.4-0.2
			c0.2-0.1,0.5-0.2,0.7-0.4c0.1-0.1,0.3-0.2,0.4-0.3c0.2-0.1,0.4-0.3,0.5-0.4c0.1-0.1,0.2-0.2,0.4-0.4c0.2-0.2,0.3-0.3,0.5-0.5
			c0.1-0.1,0.2-0.3,0.3-0.4c0.1-0.2,0.2-0.4,0.3-0.6c0.1-0.2,0.2-0.3,0.2-0.5c0.1-0.2,0.2-0.4,0.2-0.6c0.1-0.2,0.1-0.4,0.1-0.5
			c0-0.1,0-0.1,0-0.2c1.1-6.3,6.2-7.4,7.3-7.6c0.1,0,0.1,0,0.2,0c0.2,0,0.5-0.1,0.7-0.2C657.7,188.7,657.9,188.7,658.1,188.6z"/>
		<path class="st2" d="M714.1,346c0.1-0.2,0.3-0.4,0.4-0.7c0.1-0.2,0.2-0.5,0.2-0.8c0.1-0.2,0.1-0.4,0.2-0.6
			c0.1-0.4,0.1-0.9,0.1-1.4c0,0,0-0.1,0-0.1l0,0c0-0.3,0-0.5-0.1-0.8c0-0.2,0-0.5-0.1-0.7c0,0,0,0,0,0c0,0,0-0.1,0-0.1
			c-0.1-0.5-0.2-0.9-0.4-1.3c-0.1-0.2-0.2-0.4-0.3-0.6c-0.1-0.2-0.2-0.4-0.3-0.6c-0.2-0.3-0.4-0.5-0.6-0.7c-0.1-0.1-0.2-0.3-0.3-0.4
			c-0.2-0.2-0.5-0.4-0.7-0.6c-0.1-0.1-0.3-0.2-0.4-0.3c-0.3-0.2-0.5-0.3-0.8-0.4c-0.2-0.1-0.3-0.2-0.5-0.3c-0.3-0.1-0.6-0.2-0.9-0.3
			c-0.1,0-0.3-0.1-0.4-0.1c-0.5-0.1-0.9-0.1-1.4-0.1c0,0,0,0,0,0l0,0c0,0,0,0,0,0c-10.4,0-11.4-13.3-11.5-16.3c0-0.2,0-0.4,0-0.6
			c0-0.9-0.2-1.8-0.5-2.7c-0.5-1.3-1.4-2.4-2.5-3.2v0l0,0c-0.6-0.5-1.4-0.8-2.1-1.1c0,0,0,0,0,0c0,0,0,0,0,0s0,0,0,0
			c-0.7-0.2-1.4-0.3-2.2-0.3c-1.4,0-2.7,0.4-3.8,1.1c0,0,0,0,0,0v0c0,0,0,0,0,0l0,0c0,0,0,0,0,0c0,0,0,0,0,0c0,0,0,0,0,0
			c0,0,0,0,0,0s0,0,0,0c0,0,0,0,0,0v0l0,0c0,0,0,0,0,0c-0.3,0.2-0.7,0.5-1,0.7c0,0,0,0,0,0c0,0,0,0,0,0c0,0,0,0,0,0c0,0,0,0,0,0l0,0
			c0,0,0,0,0,0c0,0,0,0,0,0c0,0,0,0,0,0c0,0,0,0,0,0c0,0,0,0,0,0c0,0,0,0,0,0c-1.4,1.3-2.3,3.2-2.3,5.4l0,0c0,0,0,0,0,0c0,0,0,0,0,0
			v1.6c-0.4,12.7-11,14.9-13.3,15.2c-0.6,0.1-1.2,0.2-1.8,0.4c-0.9,0.3-1.8,0.9-2.5,1.6c-0.8,0.8-1.5,1.8-1.9,2.9
			c-0.2,0.7-0.4,1.4-0.4,2.2c0,1,0.1,1.9,0.4,2.8c0.3,0.9,0.8,1.8,1.5,2.5c0.8,0.9,1.8,1.6,3,2c0.5,0.2,1.1,0.3,1.6,0.4
			c1,0.1,12.7,2.2,13.4,17.2c0,0.1,0,0.3,0.1,0.4c0,0.2,0.1,0.5,0.1,0.7c0.1,0.2,0.1,0.5,0.2,0.7c0.1,0.2,0.1,0.4,0.2,0.6
			c0.1,0.2,0.2,0.5,0.3,0.7c0.1,0.2,0.2,0.3,0.3,0.5c0.2,0.3,0.3,0.5,0.5,0.7c0.1,0.1,0.2,0.2,0.3,0.4c0.2,0.2,0.5,0.5,0.7,0.7
			c0.1,0.1,0.2,0.2,0.3,0.2c0.3,0.2,0.6,0.4,1,0.6c0.1,0,0.1,0.1,0.2,0.1c0.4,0.2,0.8,0.3,1.2,0.4c0,0,0.1,0,0.1,0
			c0.6,0.1,1.2,0.2,1.8,0.2c0.1,0,0.1,0,0.2,0c2.9-0.1,5.3-1.8,6.4-4.2c0-0.1,0.1-0.1,0.1-0.1c0.2-0.3,0.3-0.7,0.4-1
			c0-0.1,0.1-0.2,0.1-0.4c0.1-0.3,0.1-0.6,0.1-0.9c0-0.2,0.1-0.3,0.1-0.5c0-0.6,0.9-14.7,13-17.2c0,0,0,0,0,0c0,0,0,0,0,0
			c0,0,0.1,0,0.1,0c0.5-0.1,0.9-0.2,1.3-0.4c0.2-0.1,0.4-0.2,0.5-0.3c0.2-0.1,0.5-0.3,0.7-0.4c0.2-0.1,0.4-0.3,0.6-0.5
			c0.2-0.1,0.4-0.3,0.5-0.4c0.2-0.2,0.3-0.4,0.4-0.5c0.2-0.2,0.3-0.4,0.5-0.6C713.9,346.4,714,346.2,714.1,346z"/>
		<g>
			<line class="st3" x1="652.2" y1="245.7" x2="679" y2="272.5"/>
			<line class="st3" x1="652.2" y1="272.5" x2="679" y2="245.7"/>
		</g>
		<g>
			<line class="st3" x1="527.9" y1="92.8" x2="554.7" y2="119.5"/>
			<line class="st3" x1="527.9" y1="119.5" x2="554.7" y2="92.8"/>
		</g>
		<path class="st2" d="M588.1,165.8c0,6.7-5.4,12.2-12.2,12.2c-6.7,0-12.2-5.4-12.2-12.2c0-6.7,5.4-12.2,12.2-12.2
			C582.6,153.7,588.1,159.1,588.1,165.8z"/>
	</g>
	<g>
		<path class="st2" d="M52.9,350.8c0.2-0.1,0.3-0.2,0.5-0.2c3.5-1.5,5.7-5.1,5.3-9.1c-0.5-4-3.5-7-7.3-7.7c-0.1,0-0.3-0.1-0.4-0.1
			c-1.4-0.2-8.5-1.7-10-10.3c0-0.1,0-0.1-0.1-0.2c-0.1-0.3-0.2-0.6-0.3-1c-0.1-0.2-0.1-0.5-0.2-0.7c-0.1-0.3-0.3-0.5-0.4-0.8
			c-0.1-0.2-0.3-0.5-0.4-0.7c-0.2-0.2-0.3-0.4-0.5-0.7c-0.2-0.2-0.3-0.4-0.5-0.6c-0.2-0.2-0.5-0.4-0.7-0.6c-0.2-0.2-0.4-0.3-0.6-0.5
			c-0.2-0.2-0.5-0.3-0.8-0.4c-0.2-0.1-0.5-0.3-0.8-0.4c-0.2-0.1-0.5-0.2-0.8-0.3c-0.3-0.1-0.6-0.2-0.9-0.3c-0.1,0-0.1,0-0.2-0.1
			c-0.2,0-0.4,0-0.6,0c-0.3,0-0.6-0.1-0.9-0.1c-0.3,0-0.6,0-0.9,0.1c-0.2,0-0.4,0-0.6,0c-0.1,0-0.1,0-0.2,0.1
			c-0.3,0.1-0.6,0.2-0.9,0.3c-0.3,0.1-0.6,0.2-0.8,0.3c-0.2,0.1-0.4,0.2-0.7,0.3c-0.3,0.2-0.6,0.3-0.9,0.5c-0.2,0.1-0.4,0.3-0.5,0.4
			c-0.3,0.2-0.5,0.4-0.8,0.7c-0.2,0.2-0.3,0.4-0.5,0.6c-0.2,0.2-0.4,0.5-0.6,0.7c-0.1,0.2-0.3,0.5-0.4,0.7c-0.2,0.3-0.3,0.5-0.4,0.8
			c-0.1,0.2-0.2,0.5-0.2,0.7c-0.1,0.3-0.2,0.6-0.3,1c0,0.1,0,0.1-0.1,0.2c-1.5,8.6-8.5,10.1-10,10.3c-0.2,0-0.4,0.1-0.5,0.1
			c-0.3,0.1-0.7,0.1-1,0.2c-0.3,0.1-0.5,0.2-0.8,0.3c-0.2,0.1-0.5,0.2-0.7,0.3c-0.4,0.2-0.7,0.4-1,0.6c-0.1,0.1-0.2,0.1-0.3,0.2
			c-2.3,1.8-3.7,4.8-3.3,7.9c0.5,4.1,3.6,7.1,7.5,7.7c0.1,0,0.1,0,0.2,0.1c1.4,0.2,8.5,1.7,10,10.3c0,0.1,0,0.1,0.1,0.2
			c0.1,0.3,0.1,0.5,0.2,0.7c0.1,0.3,0.2,0.6,0.3,0.9c0.1,0.2,0.2,0.4,0.3,0.6c0.1,0.3,0.3,0.6,0.5,0.8c0.1,0.2,0.3,0.4,0.4,0.5
			c0.2,0.3,0.4,0.5,0.6,0.7c0.2,0.2,0.3,0.3,0.5,0.5c0.2,0.2,0.5,0.4,0.7,0.6c0.2,0.1,0.4,0.3,0.6,0.4c0.3,0.2,0.6,0.3,1,0.5
			c0.2,0.1,0.3,0.2,0.5,0.2c1,0.4,2.1,0.6,3.2,0.6c0,0,0,0,0,0c0,0,0,0,0,0c1.1,0,2.2-0.2,3.2-0.6c0.2-0.1,0.3-0.2,0.5-0.2
			c0.3-0.1,0.6-0.3,0.9-0.5c0.2-0.1,0.4-0.3,0.6-0.4c0.3-0.2,0.5-0.4,0.7-0.6c0.2-0.2,0.3-0.3,0.5-0.5c0.2-0.2,0.4-0.5,0.6-0.7
			c0.1-0.2,0.3-0.4,0.4-0.5c0.2-0.3,0.3-0.5,0.5-0.8c0.1-0.2,0.2-0.4,0.3-0.6c0.1-0.3,0.2-0.6,0.3-0.9c0.1-0.2,0.1-0.5,0.2-0.7
			c0-0.1,0.1-0.1,0.1-0.2c1.5-8.6,8.5-10.1,10-10.3c0.1,0,0.1,0,0.2-0.1c0.3-0.1,0.6-0.1,0.9-0.2C52.5,350.9,52.7,350.9,52.9,350.8z
			"/>
		<g>
			<line class="st3" x1="115.5" y1="155.9" x2="115.5" y2="118.1"/>
			<line class="st3" x1="134.4" y1="137" x2="96.6" y2="137"/>
		</g>
		<path class="st2" d="M62.7,178c0,6.7-5.4,12.2-12.2,12.2c-6.7,0-12.2-5.4-12.2-12.2c0-6.7,5.4-12.2,12.2-12.2
			C57.2,165.8,62.7,171.3,62.7,178z"/>
		<path class="st2" d="M195.7,155.9c0,6.7-5.4,12.2-12.2,12.2c-6.7,0-12.2-5.4-12.2-12.2c0-6.7,5.4-12.2,12.2-12.2
			C190.2,143.7,195.7,149.2,195.7,155.9z"/>
		<path class="st2" d="M179.8,89.5c0,5.7-4.6,10.3-10.3,10.3c-5.7,0-10.3-4.6-10.3-10.3c0-5.7,4.6-10.3,10.3-10.3
			C175.2,79.1,179.8,83.8,179.8,89.5z"/>
		<path class="st3" d="M82.4,259.1c0,8.8-7.1,16-16,16c-8.8,0-16-7.2-16-16c0-8.8,7.1-16,16-16C75.3,243.1,82.4,250.3,82.4,259.1z"
			/>
	</g>
	<g>
		<g>
			<path d="M100.5,352.1c-1.4-1.8-1.9-4-1.3-6.7l32-150.5c0.5-2.6,1.9-4.8,4.1-6.7c2.2-1.8,4.6-2.7,7.4-2.7h28.2
				c10.1,0,18.1,3.7,24,11.1c4.4,5.5,6.6,11.8,6.6,18.7c0,2.5-0.3,5.1-0.9,7.8l-4.1,18.8c-2.6,12.1-8.9,21.5-19,28.2
				c3,4.6,5,7.7,5.8,9.4c1.5,3.2,2.2,6.9,2.2,11c0,2.5-0.3,5.1-0.9,7.8l-4.1,18.8c-2.2,10.2-7.7,19.1-16.6,26.5
				c-8.9,7.4-18.5,11.1-29,11.1h-28.2C103.9,354.8,101.9,353.9,100.5,352.1z M138.8,336c5.2,0,10-1.9,14.4-5.6
				c4.4-3.7,7.2-8.1,8.3-13.2l4.1-18.8c0.3-1.3,0.5-2.5,0.5-3.8c0-3.4-1.2-6.6-3.4-9.4c-3-3.8-6.6-5.6-10.8-5.6h-19.9L120,336H138.8
				z M155.9,260.8c4.8,0,9.4-1.9,13.6-5.8c4.3-3.9,6.9-8.2,8-13l4.1-18.8c0.3-1.4,0.5-2.7,0.5-4.1c0-3.4-1.2-6.5-3.4-9.1
				c-2.7-3.8-6.7-5.6-11.9-5.6h-18.8L136,260.8H155.9z"/>
			<path d="M227,234.3c8.9-7.4,18.6-11.1,29.1-11.1c10.4,0,18.5,3.7,24.3,11c4.2,5.3,6.3,11.4,6.3,18.3c0,2.6-0.3,5.4-0.9,8.3
				l-12.1,56.4c-2.2,10.3-7.7,19.2-16.5,26.6c-8.8,7.4-18.5,11-29.1,11c-10.2,0-18.3-3.7-24.1-11.1c-4.3-5.4-6.4-11.6-6.4-18.5
				c0-2.5,0.3-5.2,0.9-8c2.2-10.2,7.7-19.1,16.6-26.5c8.9-7.4,18.5-11.1,29-11.1h18.8l4.1-18.8c0.3-1.4,0.5-2.7,0.5-3.9
				c0-3.3-1-6.5-3.1-9.4c-3.1-3.7-7.2-5.5-12.2-5.5c-5.2,0-10.1,1.9-14.5,5.6c-4.4,3.7-7.2,8.1-8.2,13.2c-0.5,2.6-1.9,4.8-4.1,6.7
				c-2.2,1.8-4.7,2.7-7.4,2.7c-2.6,0-4.6-0.9-6-2.7c-1.4-1.8-1.9-4-1.3-6.7C212.6,250.5,218.1,241.7,227,234.3z M258.9,298.4h-18.8
				c-5.1,0-9.9,1.8-14.4,5.5c-6,4.8-8.9,10.6-8.9,17.2c0,3.4,1.1,6.5,3.3,9.2c3,3.8,7.1,5.6,12.1,5.6c5.2,0,10-1.9,14.4-5.6
				c4.4-3.7,7.2-8.1,8.3-13.2L258.9,298.4z"/>
			<path d="M360.5,257.2c0-4.3-1.5-7.9-4.4-10.8c-2.9-2.9-6.5-4.4-10.8-4.4c-5.2,0-10.1,1.9-14.6,5.6c-5.7,4.8-8.6,10.6-8.6,17.2
				c0,3.3,1,6.4,3,9.2c3.1,3.7,7.2,5.5,12.2,5.5c10.2,0,18.3,3.7,24.1,11.1c4.3,5.4,6.4,11.6,6.4,18.5c0,2.5-0.3,5.2-0.9,8
				c-2.2,10.2-7.7,19.1-16.6,26.5c-8.9,7.4-18.5,11.1-29,11.1c-10.4,0-18.5-3.7-24.3-11c-4.2-5.3-6.3-11.4-6.3-18.3
				c0-2.6,0.3-5.4,0.9-8.3c0.5-2.6,1.9-4.8,4.1-6.7c2.2-1.8,4.6-2.7,7.4-2.7c2.6,0,4.6,0.9,6,2.7c1.4,1.8,1.9,4.1,1.3,6.7
				c-0.3,1.5-0.5,2.8-0.5,4.1c0,3.6,1,6.6,3.1,9.2c2.9,3.7,7,5.5,12.2,5.5c5,0,9.8-1.8,14.3-5.5c6-4.8,8.9-10.5,8.9-17.1
				c0-4.3-1.5-7.9-4.4-10.7c-2.9-2.9-6.5-4.3-10.8-4.3c-10.6,0-18.7-3.7-24.5-11c-4.1-5.2-6.1-11.2-6.1-18c0-2.7,0.3-5.6,0.9-8.6
				c2.2-10.4,7.7-19.3,16.5-26.6c8.8-7.3,18.5-11,29.1-11c10.1,0,18.1,3.7,24,11.1c4.4,5.5,6.6,11.8,6.6,18.7c0,2.5-0.3,5.1-0.9,7.8
				c-0.6,2.7-2,4.9-4.2,6.7c-2.2,1.8-4.7,2.7-7.4,2.7c-2.6,0-4.6-0.9-6-2.7c-1.4-1.8-1.9-4-1.3-6.7
				C360.4,259.5,360.5,258.3,360.5,257.2z"/>
			<path class="st4" d="M470.8,222.8c4.6,0,7.3,2.2,8,6.6c0.3,2.3-0.7,4.9-3,7.8L441,281.1c5.3,1.7,9.9,4.9,13.6,9.6
				c4.3,5.3,6.4,11.4,6.4,18.3c0,2.6-0.3,5.3-0.9,8.2l-6,28.2c-0.5,2.6-1.9,4.8-4.1,6.7c-2.2,1.8-4.7,2.7-7.4,2.7
				c-2.6,0-4.6-0.9-6-2.7c-1.4-1.8-1.9-4-1.3-6.7l6-28.2c0.3-1.4,0.5-2.6,0.5-3.8c0-4.3-1.5-7.9-4.4-10.7c-2.9-2.9-6.5-4.3-10.8-4.3
				h-18.8l-10,47c-0.5,2.6-1.9,4.8-4.1,6.7c-2.2,1.8-4.7,2.7-7.4,2.7c-2.6,0-4.6-0.9-6-2.7c-1.4-1.8-1.9-4-1.3-6.7l32-150.5
				c0.5-2.6,1.9-4.8,4.1-6.7c2.2-1.8,4.6-2.7,7.4-2.7c2.6,0,4.6,0.9,6,2.7c1.4,1.8,1.9,4.1,1.3,6.7l-18,84.6h8.6l41.2-51.7
				C464.3,224.5,467.4,222.8,470.8,222.8z"/>
			<path d="M536.7,343.7c-8.9,7.4-18.6,11.1-28.9,11.1c-10.5,0-18.5-3.7-24.3-11c-4.2-5.3-6.3-11.4-6.3-18.3c0-2.6,0.3-5.4,0.9-8.3
				l12.1-56.4c2.2-10.4,7.7-19.3,16.5-26.6c8.8-7.3,18.5-11,29.2-11c10.1,0,18.1,3.7,24,11.1c4.4,5.5,6.6,11.8,6.6,18.7
				c0,2.5-0.3,5.1-0.9,7.8c-2.2,10.2-7.7,19.1-16.6,26.5c-8.9,7.4-18.5,11.1-29,11.1h-18.8l-4.1,18.8c-0.3,1.5-0.5,2.8-0.5,4.1
				c0,3.6,1,6.6,3.1,9.2c2.9,3.7,7,5.5,12.2,5.5c5.1,0,9.9-1.9,14.4-5.6c4.5-3.7,7.3-8.1,8.3-13.2c0.5-2.6,1.9-4.8,4.2-6.7
				c2.2-1.8,4.7-2.7,7.3-2.7c2.6,0,4.6,0.9,6,2.7c1.4,1.8,1.9,4.1,1.3,6.7C551.2,327.4,545.6,336.3,536.7,343.7z M505,279.6h18.8
				c5.1,0,9.9-1.8,14.3-5.5c6-4.9,8.9-10.6,8.9-17.1c0-4.2-1.5-7.7-4.4-10.7c-2.9-2.9-6.5-4.4-10.8-4.4c-5.2,0-10,1.8-14.4,5.5
				c-4.4,3.7-7.2,8.1-8.3,13.3L505,279.6z"/>
			<path d="M610.3,223.1h18.8c2.2,0,4,0.7,5.4,2c1.4,1.4,2.1,3.1,2.1,5.3c0,3-1.2,5.7-3.5,8c-2.4,2.3-5,3.4-8.1,3.4h-18.8l-16,75.2
				c-0.3,1.5-0.5,2.8-0.5,4.1c0,3.6,1,6.6,3.1,9.2c2.9,3.7,7,5.5,12.2,5.5c2.2,0,4,0.7,5.4,2c1.4,1.4,2.1,3.1,2.1,5.3
				c0,3-1.2,5.7-3.5,8c-2.4,2.3-5,3.4-8.1,3.4c-10.5,0-18.5-3.7-24.3-11c-4.2-5.3-6.3-11.4-6.3-18.3c0-2.6,0.3-5.4,0.9-8.3l26-122.3
				c0.5-2.6,1.9-4.8,4.1-6.7c2.2-1.8,4.6-2.7,7.4-2.7c2.6,0,4.6,0.9,6,2.7c1.4,1.8,1.9,4.1,1.3,6.7L610.3,223.1z"/>
		</g>
		<circle class="st4" cx="438.5" cy="370.3" r="9.3"/>
		<circle class="st4" cx="382.5" cy="370.3" r="9.3"/>
		<path class="st4" d="M427.5,195.6l-26.3-5.3c-0.8-0.2-1.3-1-1.2-1.8l1.6-8c0.2-0.8,1-1.3,1.8-1.2l26.3,5.3c0.8,0.2,1.3,1,1.2,1.8
			l-1.6,8C429.1,195.3,428.3,195.8,427.5,195.6z"/>
		<g>
			<path class="st4" d="M605.6,377.6H464.8c-1.6,0-2.8-1.3-2.8-2.8V365c0-1.6,1.3-2.8,2.8-2.8h140.8c1.6,0,2.8,1.3,2.8,2.8v9.7
				C608.5,376.3,607.2,377.6,605.6,377.6z"/>
		</g>
		<g>
			<path class="st4" d="M353.8,377.6H97.3c-1.6,0-2.8-1.3-2.8-2.8V365c0-1.6,1.3-2.8,2.8-2.8h256.5c1.6,0,2.8,1.3,2.8,2.8v9.7
				C356.6,376.3,355.4,377.6,353.8,377.6z"/>
		</g>
	</g>
</g>
</svg>
