<svg id="Layer_1" data-name="Layer 1" xmlns="http://www.w3.org/2000/svg" viewBox="0 0 472 473"><defs><style>.cls-1{font-size:52.92px;font-family:OpenSans-Bold, Open Sans;font-weight:700;}.cls-2{fill:#2c2c2c;}</style></defs><title>للطلب EN</title><text class="cls-1" transform="translate(7.31 238.36)">Click here<tspan x="23.04" y="63.5">to order</tspan></text><path class="cls-2" d="M432.11,229.29c-3.39-3.18-6.88-6.21-10.57-9a93.87,93.87,0,0,0-11.75-7.7q-4-2.22-8.06-4.11a120.18,120.18,0,0,0-19.15-6.91,108.61,108.61,0,0,0-14.32-2.85,114.68,114.68,0,0,0-13.87-.76,139.28,139.28,0,0,0-14.44.53,112.09,112.09,0,0,0-13.36,2.33,208.25,208.25,0,0,0-20.83,5.86c-6.48,2.18-13.07,4.75-18,9.64l-1,1.06a5.46,5.46,0,0,0,3.86,8.61,5.26,5.26,0,0,0,4-1.18,28.25,28.25,0,0,1,4.32-3.46,54.34,54.34,0,0,1,8.74-3.74q4.62-1.62,9.3-3,7.69-2.16,15.55-3.68a97.44,97.44,0,0,1,16.06-1.76c4.51-.07,9,0,13.52.33a92.75,92.75,0,0,1,14.08,2.13,113.88,113.88,0,0,1,25.54,9.65,95.08,95.08,0,0,1,11.2,7.18A116.35,116.35,0,0,1,423,237a183.78,183.78,0,0,1,13.38,14.25q1.84,2.18,3.65,4.39c-1.58-.44-3.16-.86-4.77-1.18a16.4,16.4,0,0,0-6.36,0,3.43,3.43,0,0,0-2.85,3,3.35,3.35,0,0,0,.73,2.49,3.55,3.55,0,0,0,2.27,1.23c1.46.24,2.92.59,4.37.9a139.46,139.46,0,0,1,14.8,4.65l.16.24a5.75,5.75,0,0,0,2.46,1.78,5.77,5.77,0,0,0,7.47-3.37,5.54,5.54,0,0,0,.33-1.41,4.47,4.47,0,0,0,.26-2.49c-.68-3.66-1.22-7.35-1.73-11.05-.42-3-.77-6-.89-9a10,10,0,0,0-.66-4.53,4.84,4.84,0,0,0-2.32-2.34,4.47,4.47,0,0,0-1.41-.39,4.66,4.66,0,0,0-4.78,2.94,9.45,9.45,0,0,0-.44,4.63c.08.94.14,1.89.19,2.83,0,.06,0,.12,0,.18-.15-.16-.29-.33-.44-.5-4.54-5.18-9.32-10.17-14.36-14.89"/></svg>