<svg id="Layer_1" data-name="Layer 1" xmlns="http://www.w3.org/2000/svg" viewBox="0 0 472 473"><defs><style>.cls-1{fill:#2c2c2c;}</style></defs><title>للطلب AR-01</title><path class="cls-1" d="M48.58,220.89c3.39-3.18,6.88-6.22,10.56-9.06a95.87,95.87,0,0,1,11.76-7.7q4-2.2,8.06-4.11a118.82,118.82,0,0,1,19.15-6.9,108.64,108.64,0,0,1,14.32-2.86,116.76,116.76,0,0,1,13.87-.76,142.12,142.12,0,0,1,14.44.53,110.14,110.14,0,0,1,13.36,2.34,208.2,208.2,0,0,1,20.83,5.85c6.48,2.18,13.07,4.75,18,9.64l1,1.06a5.35,5.35,0,0,1,1,2.61,5.46,5.46,0,0,1-4.85,6,5.21,5.21,0,0,1-4-1.18,29.39,29.39,0,0,0-4.32-3.46,55.25,55.25,0,0,0-8.74-3.74q-4.62-1.62-9.31-3c-5.12-1.45-10.31-2.66-15.54-3.69a98.65,98.65,0,0,0-16.07-1.76c-4.5-.06-9,0-13.52.33a92.81,92.81,0,0,0-14.07,2.13A114.85,114.85,0,0,0,79,212.81,97.36,97.36,0,0,0,67.77,220a121.3,121.3,0,0,0-10.12,8.55,185.6,185.6,0,0,0-13.37,14.25q-1.85,2.18-3.65,4.39c1.58-.44,3.16-.86,4.76-1.17a16.26,16.26,0,0,1,6.37,0,3.43,3.43,0,0,1,2.85,3,3.39,3.39,0,0,1-.73,2.48,3.51,3.51,0,0,1-2.27,1.24c-1.47.24-2.92.58-4.37.89a139.46,139.46,0,0,0-14.8,4.65,2.13,2.13,0,0,0-.16.25,5.81,5.81,0,0,1-9.94-1.59A5.52,5.52,0,0,1,22,255.5a4.48,4.48,0,0,1-.26-2.49c.68-3.67,1.22-7.36,1.73-11.06a90.19,90.19,0,0,0,.89-9,10,10,0,0,1,.66-4.53,4.88,4.88,0,0,1,2.32-2.34,4.57,4.57,0,0,1,6.19,2.55,9.48,9.48,0,0,1,.43,4.64q-.1,1.41-.18,2.82c0,.06,0,.13,0,.19l.44-.51c4.54-5.18,9.32-10.17,14.36-14.88"/><path d="M294.4,187.47H256.46c-12.33,0-18.47-5.19-18.47-15.63v-9.65h7.7v9.65c0,3.29,1.06,5.58,3.12,6.75,1.62.95,4.19,1.4,7.81,1.4h17.8c2.63,0,4-1.79,4-5.36V162.19h7.81v12.16a16.68,16.68,0,0,1-.89,5.64h9.09Zm-27.79,9.26h-7v-6.47h7Z"/><path d="M318.45,187.47H293.12V180h5.3c2.62,0,4-1.79,4-5.36v-23.1h7.87v22.82a16.68,16.68,0,0,1-.95,5.64h9.15Z"/><path d="M370.51,187.47H317.56V180h8.92V151.53h7.76l-.72,18.25c5-5.25,10-7.7,15.62-7.7,9.21,0,14.45,6.47,15.29,17.91h6.08ZM356.23,180a8.4,8.4,0,0,0,0-1.12c0-5.8-2.9-10-7.75-10-5.75,0-10.88,3.74-15.18,11.11Z"/><path d="M394.51,187.47H369.17V180h5.3c2.63,0,4-1.79,4-5.36v-23.1h7.87v22.82a16.44,16.44,0,0,1-.95,5.64h9.16Z"/><path d="M409.68,176.7a11.15,11.15,0,0,1-2.45,7.36,9.31,9.31,0,0,1-7.7,3.41h-7.37V180h5.75c2.62,0,4-1.84,4-5.47v-23h7.81Z"/><path d="M213.63,254.43h-7.36c-6,0-9.44-3.46-9.44-9.21V218.44h7.82v22.71c0,3.79.95,5.8,6.69,5.8h2.29Z"/><path d="M237.57,254.43H212.4V247h5.14c2.62,0,4-1.79,4-5.36V229.15h7.87v12.16a16.68,16.68,0,0,1-1,5.64h9.15Zm-8.82-29.52h-7v-6.42h7Z"/><path d="M277,254.43H235.39V247h8.32a11,11,0,0,1-1.06-4.85c0-6.76,4.85-11.11,11.83-11.11s11.77,4.13,11.77,11.11a11.83,11.83,0,0,1-1,4.85h5.41l.11-2.85c-.11-8.37-4.52-14.95-13.06-15.84l.67-7.54A23.34,23.34,0,0,1,274.29,230a23.65,23.65,0,0,1,4.07,14.06A42.26,42.26,0,0,1,277,254.43ZM258.83,242c0-2.73-1.62-4.74-4.35-4.74s-4.3,2-4.3,4.74,1.78,5,4.3,5S258.83,244.83,258.83,242Z"/><path d="M342.86,254.43H293.37V247h5.47V218.49h7.81l-.73,18.25c5-5.25,10.1-7.7,15.63-7.7,9.2,0,14.56,6.64,15.23,17.91h6.08ZM328.63,247v-.78c0-6.14-2.79-10.32-7.75-10.32-5.75,0-10.83,3.73-15.13,11.1Z"/><path d="M388.84,254.43H374.45a11.7,11.7,0,0,1-8.66-3.91,15.67,15.67,0,0,1-5.24,2.79,23.11,23.11,0,0,1-6.92,1.12H341.35V247h12.17a13.46,13.46,0,0,0,7.25-1.9,14.93,14.93,0,0,0-4.24-3.57,19.73,19.73,0,0,0-6.81-2.79v-6.42a30.13,30.13,0,0,1,15.46-4.52,27.76,27.76,0,0,1,17.24,6.14,24.1,24.1,0,0,1-4.07,5.92,29.05,29.05,0,0,1-6.42,5.75,5.89,5.89,0,0,0,4.19,1.39h12.72ZM372.77,236a15.34,15.34,0,0,0-7-1.84,15.05,15.05,0,0,0-6.64,1.56,21.87,21.87,0,0,1,4,2.23,21.33,21.33,0,0,1,3.46,3.35,14.64,14.64,0,0,0,3.62-2.57A12.28,12.28,0,0,0,372.77,236Zm-3.46-12.22h-7v-6.42h7Z"/><path d="M437.44,254.43H385.83V247h7c2.56,0,4-1.34,4-5.36v-9.76h7.81v7.42c5-6.42,11.5-10.21,17.75-10.21,10,0,15.34,7.64,15.34,20.25C437.72,251,437.61,252.7,437.44,254.43ZM429.52,247l.06-1c0-5.75-2.85-10.1-7.76-10.1-5.75,0-10.88,3.73-15.18,11.1Zm-5-22h-7v-6.42h7Z"/><path d="M452.17,254.43h-7.81v-36h7.81Z"/></svg>