<svg xmlns="http://www.w3.org/2000/svg" viewBox="0 0 504.47 186.41"><defs><style>.cls-1{fill:#fff;}</style></defs><title>Asset 2</title><g id="Layer_2" data-name="Layer 2"><g id="Layer_1-2" data-name="Layer 1"><path class="cls-1" d="M5.62,160.7a7.31,7.31,0,0,1-1.24-6.19l29.75-140A10.66,10.66,0,0,1,37.92,8.3a10.46,10.46,0,0,1,6.86-2.56H71q14.14,0,22.31,10.36a27.2,27.2,0,0,1,6.13,17.35,32.09,32.09,0,0,1-.88,7.3L94.8,58.25A40.58,40.58,0,0,1,77.15,84.5q4.23,6.42,5.4,8.75a24.59,24.59,0,0,1,2,10.21,32.55,32.55,0,0,1-.87,7.29l-3.79,17.5q-3.08,14.3-15.46,24.65t-27,10.36H11.23A6.64,6.64,0,0,1,5.62,160.7Zm35.66-14.95a20.32,20.32,0,0,0,13.41-5.17,22.25,22.25,0,0,0,7.73-12.33l3.8-17.5a14.39,14.39,0,0,0,.43-3.5,13.52,13.52,0,0,0-3.21-8.75q-4.23-5.25-10.06-5.25H34.86l-11.08,52.5Zm15.89-70q6.7,0,12.69-5.4a22.7,22.7,0,0,0,7.44-12.1l3.79-17.5A17,17,0,0,0,81.53,37a12.41,12.41,0,0,0-3.21-8.46q-3.79-5.25-11.08-5.25H49.74L38.65,75.75Z"/><path class="cls-1" d="M123.31,51.1q12.48-10.35,27.06-10.35T173,51A26.85,26.85,0,0,1,178.81,68a37.18,37.18,0,0,1-.88,7.73l-11.23,52.5Q163.64,142.7,151.32,153t-27.06,10.29q-14.3,0-22.46-10.36a27,27,0,0,1-6-17.21,34,34,0,0,1,.88-7.44q3.06-14.28,15.46-24.64t27-10.36h17.5l3.79-17.5a16.3,16.3,0,0,0,.44-3.65A14.83,14.83,0,0,0,158,63.35a14.29,14.29,0,0,0-11.38-5.1,20.64,20.64,0,0,0-13.49,5.18,21.38,21.38,0,0,0-7.65,12.32,10.65,10.65,0,0,1-3.79,6.2,10.47,10.47,0,0,1-6.86,2.55A6.66,6.66,0,0,1,109.17,82a7.3,7.3,0,0,1-1.24-6.2Q110.84,61.46,123.31,51.1ZM153,110.75h-17.5a20.87,20.87,0,0,0-13.42,5.11q-8.31,6.7-8.31,16a13.3,13.3,0,0,0,3.06,8.6,13.71,13.71,0,0,0,11.23,5.25,20.34,20.34,0,0,0,13.42-5.17,22.31,22.31,0,0,0,7.73-12.33Z"/><path class="cls-1" d="M247.5,72.39a14,14,0,0,0-14.15-14.14,20.72,20.72,0,0,0-13.56,5.25q-8,6.7-8,16a14.65,14.65,0,0,0,2.77,8.61,14.27,14.27,0,0,0,11.37,5.1q14.29,0,22.46,10.36a27,27,0,0,1,6,17.21,34.45,34.45,0,0,1-.87,7.43q-3.06,14.3-15.46,24.65t-27,10.36q-14.59,0-22.61-10.21A26.89,26.89,0,0,1,182.6,136a37.21,37.21,0,0,1,.87-7.73,10.63,10.63,0,0,1,3.79-6.19,10.48,10.48,0,0,1,6.86-2.56,6.67,6.67,0,0,1,5.61,2.56,7.27,7.27,0,0,1,1.24,6.19,18.36,18.36,0,0,0-.43,3.8,13.38,13.38,0,0,0,2.91,8.6c2.72,3.41,6.52,5.1,11.38,5.1a20.66,20.66,0,0,0,13.27-5.1q8.31-6.71,8.31-15.9a13.46,13.46,0,0,0-4.08-10,13.82,13.82,0,0,0-10.06-4q-14.75,0-22.76-10.21a26.51,26.51,0,0,1-5.68-16.77,39.84,39.84,0,0,1,.87-8Q197.76,61.17,210.09,51t27-10.21q14.15,0,22.32,10.35a27.27,27.27,0,0,1,6.12,17.36,34.55,34.55,0,0,1-.8,7.22A11,11,0,0,1,260.92,82a10.47,10.47,0,0,1-6.86,2.55A6.66,6.66,0,0,1,248.45,82a7.3,7.3,0,0,1-1.24-6.2A20.9,20.9,0,0,0,247.5,72.39Z"/><path class="cls-1" d="M350.17,40.46q6.42,0,7.44,6.12.43,3.21-2.77,7.29L322.46,94.71a26,26,0,0,1,12.69,8.9,26.47,26.47,0,0,1,6,17.06,34.49,34.49,0,0,1-.88,7.58l-5.54,26.26a10.63,10.63,0,0,1-3.79,6.19,10.41,10.41,0,0,1-6.86,2.56,6.64,6.64,0,0,1-5.61-2.56,7.31,7.31,0,0,1-1.24-6.19l5.54-26.26a15.72,15.72,0,0,0,.44-3.5,13.46,13.46,0,0,0-4.08-10,13.84,13.84,0,0,0-10.07-4h-17.5l-9.33,43.76a10.63,10.63,0,0,1-3.79,6.19,10.43,10.43,0,0,1-6.86,2.56A6.64,6.64,0,0,1,266,160.7a7.27,7.27,0,0,1-1.24-6.19l29.75-140a10.61,10.61,0,0,1,3.79-6.19,10.45,10.45,0,0,1,6.85-2.56,6.69,6.69,0,0,1,5.62,2.56A7.35,7.35,0,0,1,312,14.49L295.19,93.25h8l38.36-48.13Q345.35,40.46,350.17,40.46Z"/><path class="cls-1" d="M411.5,152.9Q399,163.26,384.59,163.26q-14.59,0-22.61-10.21A26.89,26.89,0,0,1,356.15,136a37.21,37.21,0,0,1,.87-7.73l11.23-52.5Q371.33,61.17,383.57,51t27.12-10.21q14.15,0,22.32,10.35a27.27,27.27,0,0,1,6.12,17.36,32.62,32.62,0,0,1-.87,7.29Q435.2,90,422.8,100.4t-27,10.35h-17.5l-3.79,17.5a17.75,17.75,0,0,0-.44,3.8,13.38,13.38,0,0,0,2.91,8.6c2.73,3.41,6.52,5.1,11.38,5.1a20.73,20.73,0,0,0,13.42-5.17,21.31,21.31,0,0,0,7.73-12.33,11.35,11.35,0,0,1,10.64-8.75,6.69,6.69,0,0,1,5.62,2.56,7.34,7.34,0,0,1,1.24,6.19Q424,142.55,411.5,152.9ZM382,93.25h17.5a20.36,20.36,0,0,0,13.28-5.1q8.31-6.86,8.31-15.9A13.52,13.52,0,0,0,417,62.33a13.7,13.7,0,0,0-10.07-4.08,20.49,20.49,0,0,0-13.41,5.1,21.94,21.94,0,0,0-7.73,12.4Z"/><path class="cls-1" d="M480,40.75h17.5a7,7,0,0,1,5,1.89,6.6,6.6,0,0,1,2,5A10.1,10.1,0,0,1,501.19,55a10.45,10.45,0,0,1-7.51,3.21h-17.5l-14.88,70a18.41,18.41,0,0,0-.44,3.8,13.33,13.33,0,0,0,2.92,8.6c2.72,3.41,6.51,5.1,11.38,5.1a7,7,0,0,1,5,1.9,6.6,6.6,0,0,1,2,5,10.13,10.13,0,0,1-3.28,7.44,10.47,10.47,0,0,1-7.52,3.21q-14.58,0-22.6-10.21A26.9,26.9,0,0,1,442.92,136a37.26,37.26,0,0,1,.88-7.73L468,14.49A10.66,10.66,0,0,1,471.8,8.3a10.46,10.46,0,0,1,6.86-2.56,6.67,6.67,0,0,1,5.61,2.56,7.31,7.31,0,0,1,1.24,6.19Z"/><circle class="cls-1" cx="320.14" cy="177.73" r="8.68"/><circle class="cls-1" cx="268.05" cy="177.73" r="8.68"/><rect class="cls-1" x="284.76" y="2.36" width="27.78" height="10.42" rx="1.5" transform="translate(7.33 -58.6) rotate(11.35)"/><rect class="cls-1" x="341.98" y="170.08" width="136.31" height="14.35" rx="3"/><rect class="cls-1" y="170.08" width="243.93" height="14.35" rx="3"/></g></g></svg>